<?xml version="1.0" encoding="iso-8859-1"?>
<!-- Uploaded to: SVG Repo, www.svgrepo.com, Generator: SVG Repo Mixer Tools -->
<svg height="800px" width="800px" version="1.1" id="Layer_1" xmlns="http://www.w3.org/2000/svg" xmlns:xlink="http://www.w3.org/1999/xlink" 
	 viewBox="0 0 512.001 512.001" xml:space="preserve">
<path style="fill:#F30C16;" d="M442.532,305.993c-4.956,87.186-79.827,194.343-153.821,195.638
	c-12.247,0.215-20.174-4.969-32.795-8.17c-12.621,3.2-20.546,8.385-32.795,8.17c-73.994-1.296-148.866-108.452-153.821-195.638
	c-4.4-77.336,43.084-123.693,117.158-109.603l69.457,6.75l69.457-6.75C399.448,182.3,446.931,228.658,442.532,305.993z"/>
<path style="fill:#C30C16;" d="M442.532,305.993c-4.956,87.186-79.827,194.343-153.821,195.638
	c-11.986,0.21-19.845-4.747-32.005-7.958c20.564-42.746,33.788-88.525,36.215-131.225c4.653-81.776-28.03-141.252-85.647-164.034
	l48.641,4.727l69.457-6.75C399.448,182.3,446.931,228.658,442.532,305.993z"/>
<path style="fill:#C5E02C;" d="M431.005,49.964c-0.363-13.458-2.222-26.521-5.397-39.041c-6.214-0.491-12.514-0.667-18.884-0.495
	c-55.005,1.498-103.443,28.101-134.726,68.577c-20.198-33.627-56.511-56.544-98.527-57.688c-4.285-0.117-8.522,0.002-12.704,0.333
	c-2.139,8.423-3.387,17.209-3.629,26.263c-1.437,53.133,32.024,99.068,79.485,115.708c0.007-0.055,0.018-0.11,0.026-0.165
	c-1.269,9.396-1.814,19.013-1.549,28.801c0.36,13.458,2.222,26.521,5.394,39.041c6.214,0.491,12.514,0.667,18.886,0.492
	C356.806,229.141,433.644,147.733,431.005,49.964z"/>
<path style="fill:#729800;" d="M236.625,163.622c-47.462-16.64-80.923-62.575-79.485-115.708c0.242-9.054,1.49-17.841,3.629-26.263
	c4.183-0.331,8.419-0.451,12.703-0.332c42.016,1.142,78.331,24.058,98.528,57.688C253.386,103.089,240.855,132.083,236.625,163.622
	L236.625,163.622z"/>
<path d="M223.912,512.001c-0.307,0-0.617-0.002-0.93-0.007c-37.719-0.658-78.348-26.097-111.467-69.795
	c-30.838-40.687-50.757-91.42-53.284-135.708c-2.417-42.338,10.03-77.747,35.049-99.701c23.973-21.038,56.907-28.314,95.243-21.049
	c5.965,1.131,9.885,6.883,8.754,12.85c-1.13,5.966-6.887,9.886-12.85,8.755c-31.44-5.959-57.944-0.437-76.645,15.973
	c-19.821,17.392-29.623,46.486-27.6,81.921c2.288,40.1,20.551,86.336,48.855,123.68c29.017,38.285,63.397,60.55,94.326,61.09
	c6.061,0.11,10.741-1.543,17.226-3.823c3.703-1.302,7.899-2.779,12.755-4.003c1.764-0.446,3.612-0.446,5.377,0
	c4.853,1.224,9.047,2.7,12.747,4.002c6.486,2.281,11.189,3.935,17.234,3.825c30.926-0.539,65.305-22.805,94.322-61.089
	c28.303-37.344,46.569-83.58,48.858-123.681c1.757-30.776-8.437-59.608-27.966-79.103c-4.297-4.29-4.304-11.251-0.013-15.548
	c4.291-4.296,11.252-4.301,15.548-0.013c23.964,23.922,36.496,58.882,34.384,95.916c-2.529,44.29-22.448,95.022-53.288,135.71
	c-33.119,43.696-73.745,69.135-111.462,69.793c-10.007,0.149-17.589-2.492-24.915-5.068c-2.612-0.919-5.289-1.86-8.14-2.691
	c-2.852,0.831-5.534,1.774-8.147,2.692C240.794,509.423,233.465,512.001,223.912,512.001z M218.642,464.746
	c-0.849,0-1.711-0.099-2.574-0.305c-24.752-5.939-47.818-23.966-60.196-47.046c-2.871-5.352-0.859-12.015,4.492-14.886
	c5.353-2.867,12.016-0.856,14.885,4.493c9.504,17.721,27.11,31.536,45.949,36.057c5.904,1.417,9.543,7.353,8.126,13.256
	C228.114,461.357,223.609,464.746,218.642,464.746z M216.837,270.501c-2.502,0-5.017-0.849-7.08-2.587
	c-4.643-3.914-5.234-10.85-1.32-15.493l20.151-23.905c-2.606-11.735-4.087-23.751-4.411-35.799
	c-0.198-7.287,0.018-14.519,0.639-21.674c-48.835-20.829-80.133-69.147-78.674-122.893c0.258-9.667,1.594-19.296,3.969-28.615
	c1.162-4.559,5.098-7.874,9.788-8.244c4.636-0.366,9.307-0.484,13.883-0.363c39.393,1.068,75.497,19.632,99.212,50.385
	c0.831-0.91,1.671-1.815,2.521-2.713c34.465-36.388,81.038-57.175,131.138-58.533c6.631-0.178,13.382-0.002,20.063,0.523
	c4.693,0.371,8.629,3.688,9.791,8.249c3.429,13.469,5.359,27.384,5.738,41.354c2.801,103.424-79.058,189.846-182.477,192.65
	c-4.757,0.127-9.568,0.076-14.365-0.159l-20.152,23.907C223.074,269.173,219.965,270.501,216.837,270.501z M336.783,106.226
	c2.502,0,5.017,0.849,7.08,2.587c4.643,3.914,5.234,10.85,1.32,15.493l-81.223,96.36c89.021-4.963,158.732-80.177,156.302-169.874
	c-0.261-9.661-1.363-19.288-3.281-28.72c-3.259-0.101-6.515-0.109-9.735-0.022c-44.23,1.198-85.344,19.55-115.77,51.673
	c-3.648,3.85-7.087,7.842-10.317,11.965c-0.12,0.173-0.243,0.343-0.374,0.511c-17.848,23.013-29.329,50.374-33.201,79.128
	c-0.029,0.224-0.067,0.445-0.11,0.666c-1.112,8.581-1.56,17.314-1.322,26.131c0.129,4.798,0.467,9.59,1.008,14.354l81.209-96.344
	C330.546,107.555,333.655,106.226,336.783,106.226z M169.718,32.871c-0.919,5.229-1.455,10.542-1.598,15.872
	c-1.158,42.679,22.539,81.232,60.058,99.66c5.281-24.936,15.616-48.485,30.527-69.399C239.131,50.93,207.672,33.843,173.18,32.91
	C172.033,32.878,170.883,32.864,169.718,32.871z"/>
</svg>