<svg aria-hidden="true" style="position: absolute; width: 0; height: 0; overflow: hidden;" version="1.1"
    xmlns="http://www.w3.org/2000/svg" xmlns:xlink="http://www.w3.org/1999/xlink">
    <defs>
        <symbol id="icon-toggle" viewBox="0 0 32 32">
           <path d="M2.667 7.993c0-0.733 0.595-1.327 1.327-1.327h10.68c0.352 0 0.689 0.14 0.938 0.389s0.389 0.586 0.389 0.938c0 0.352-0.14 0.689-0.389 0.938s-0.586 0.389-0.938 0.389h-10.68c-0.352 0-0.689-0.14-0.938-0.389s-0.389-0.586-0.389-0.938zM2.667 16c0-0.733 0.595-1.327 1.327-1.327h24.013c0.352 0 0.689 0.14 0.938 0.389s0.389 0.586 0.389 0.938c0 0.352-0.14 0.689-0.389 0.938s-0.586 0.389-0.938 0.389h-24.013c-0.352 0-0.689-0.14-0.938-0.389s-0.389-0.586-0.389-0.938zM3.993 22.68c-0.352 0-0.689 0.14-0.938 0.389s-0.389 0.586-0.389 0.938c0 0.352 0.14 0.689 0.389 0.938s0.586 0.389 0.938 0.389h16.013c0.352 0 0.689-0.14 0.938-0.389s0.389-0.586 0.389-0.938c0-0.352-0.14-0.689-0.389-0.938s-0.586-0.389-0.938-0.389h-16.013z"></path>
        </symbol>
        <symbol id="icon-mobile-toggle" viewBox="0 0 32 32">
          <path stroke-linejoin="round" stroke-linecap="round" stroke-miterlimit="4" stroke-width="2.6667" d="M24 8l-16 16"></path>
          <path stroke-linejoin="round" stroke-linecap="round" stroke-miterlimit="4" stroke-width="2.6667" d="M8 8l16 16"></path>
          </symbol>
        <symbol id="icon-bascket" viewBox="0 0 32 32">
          <path d="M25.333 9.333h-4v-1.333c0-1.415-0.562-2.771-1.562-3.771s-2.357-1.562-3.771-1.562c-1.415 0-2.771 0.562-3.771 1.562s-1.562 2.357-1.562 3.771v1.333h-4c-0.354 0-0.693 0.14-0.943 0.39s-0.391 0.589-0.391 0.943v14.667c0 1.061 0.421 2.078 1.172 2.828s1.768 1.172 2.828 1.172h13.333c1.061 0 2.078-0.422 2.828-1.172s1.172-1.768 1.172-2.828v-14.667c0-0.354-0.14-0.693-0.39-0.943s-0.589-0.39-0.943-0.39zM13.333 8c0-0.707 0.281-1.386 0.781-1.886s1.178-0.781 1.886-0.781c0.707 0 1.386 0.281 1.886 0.781s0.781 1.178 0.781 1.886v1.333h-5.333v-1.333zM24 25.333c0 0.354-0.141 0.693-0.391 0.943s-0.589 0.391-0.943 0.391h-13.333c-0.354 0-0.693-0.141-0.943-0.391s-0.391-0.589-0.391-0.943v-13.333h2.667v1.333c0 0.354 0.14 0.693 0.391 0.943s0.589 0.391 0.943 0.391c0.354 0 0.693-0.141 0.943-0.391s0.39-0.589 0.39-0.943v-1.333h5.333v1.333c0 0.354 0.14 0.693 0.39 0.943s0.589 0.391 0.943 0.391c0.354 0 0.693-0.141 0.943-0.391s0.39-0.589 0.39-0.943v-1.333h2.667v13.333z"></path>
        </symbol>
        <symbol id="icon-arrow" viewBox="0 0 32 32">
            <path
                d="M32 4.741l-4.741-4.741v23.704l-23.704-23.704-3.556 3.556 23.704 23.704h-23.704l4.741 4.741h27.259v-27.259z">
            </path>
        </symbol>
        <symbol id="icon-btn-order" viewBox="0 0 38 32">
            <path fill="#fff" style="fill: var(--color2, #fff)"
                d="M12.263 16.508l-0.397-0.397v1.987l-1.987-1.987-0.298 0.298 1.987 1.987h-1.987l0.397 0.397h2.285v-2.285z">
            </path>
            <path fill="#fff" style="fill: var(--color2, #fff)"
                d="M15.272 17.369c-0.232 0.058-0.448 0.057-0.647-0.002s-0.371-0.167-0.514-0.323c-0.144-0.158-0.245-0.357-0.305-0.596s-0.063-0.461-0.010-0.666c0.053-0.207 0.153-0.384 0.301-0.53s0.339-0.248 0.571-0.306c0.232-0.058 0.448-0.057 0.647 0.002s0.37 0.168 0.512 0.327c0.143 0.156 0.245 0.354 0.304 0.592s0.063 0.462 0.010 0.669c-0.051 0.205-0.151 0.38-0.299 0.526s-0.339 0.248-0.571 0.306zM15.193 17.051c0.161-0.040 0.291-0.111 0.392-0.211 0.103-0.101 0.171-0.227 0.204-0.378s0.027-0.318-0.019-0.504c-0.046-0.185-0.119-0.336-0.22-0.454s-0.22-0.196-0.358-0.238c-0.136-0.042-0.284-0.043-0.445-0.003s-0.292 0.111-0.395 0.212c-0.103 0.101-0.171 0.227-0.204 0.378-0.031 0.15-0.024 0.318 0.022 0.503s0.118 0.337 0.216 0.454c0.1 0.117 0.22 0.196 0.358 0.238s0.288 0.042 0.448 0.002zM16.685 16.974l-0.584-2.343 0.807-0.201c0.185-0.046 0.345-0.053 0.479-0.020 0.136 0.032 0.246 0.095 0.331 0.188 0.084 0.090 0.142 0.2 0.175 0.33 0.036 0.145 0.030 0.286-0.019 0.424-0.046 0.137-0.145 0.252-0.295 0.344l0.746 0.87-0.412 0.103-0.69-0.83-0.418 0.104 0.235 0.944-0.355 0.088zM16.738 15.674l0.432-0.108c0.161-0.040 0.268-0.108 0.322-0.205 0.056-0.097 0.069-0.208 0.038-0.333s-0.093-0.215-0.185-0.27c-0.093-0.057-0.221-0.066-0.386-0.024l-0.428 0.107 0.208 0.833zM18.587 16.5l-0.584-2.343 0.76-0.189c0.274-0.068 0.512-0.077 0.712-0.025 0.202 0.051 0.368 0.155 0.497 0.31 0.13 0.152 0.226 0.349 0.286 0.59 0.060 0.239 0.068 0.457 0.025 0.655-0.041 0.195-0.139 0.363-0.294 0.503-0.153 0.138-0.367 0.241-0.641 0.309l-0.76 0.189zM18.867 16.11l0.392-0.098c0.212-0.053 0.371-0.129 0.476-0.229 0.108-0.1 0.172-0.222 0.193-0.365 0.024-0.143 0.013-0.305-0.032-0.486s-0.112-0.33-0.2-0.448c-0.086-0.118-0.201-0.196-0.343-0.234-0.14-0.041-0.317-0.035-0.529 0.018l-0.392 0.098 0.435 1.744zM20.806 15.947l-0.584-2.343 1.489-0.371 0.072 0.288-1.135 0.283 0.182 0.73 1.034-0.258 0.070 0.281-1.034 0.258 0.189 0.756 1.134-0.283 0.072 0.288-1.489 0.371zM22.584 15.503l-0.584-2.343 0.806-0.201c0.185-0.046 0.345-0.053 0.478-0.020 0.136 0.032 0.246 0.095 0.331 0.188 0.084 0.090 0.142 0.2 0.175 0.33 0.036 0.145 0.030 0.286-0.019 0.424-0.046 0.137-0.144 0.252-0.295 0.344l0.747 0.87-0.412 0.103-0.691-0.83-0.418 0.104 0.235 0.944-0.355 0.088zM22.637 14.204l0.432-0.108c0.161-0.040 0.268-0.108 0.322-0.205 0.057-0.097 0.069-0.208 0.038-0.333s-0.093-0.215-0.185-0.27c-0.093-0.057-0.221-0.066-0.387-0.024l-0.428 0.107 0.208 0.833z">
            </path>
        </symbol>
        <symbol id="icon-btn-shopnow" viewBox="0 0 34 32">
            <path fill="#ae1332" style="fill: var(--color1, #ae1332)"
                d="M12.441 15.846c-0.219 0.054-0.42 0.064-0.604 0.028s-0.34-0.113-0.47-0.232c-0.126-0.119-0.215-0.277-0.267-0.472l0.477-0.119c0.043 0.158 0.132 0.28 0.267 0.363s0.301 0.101 0.497 0.053c0.173-0.043 0.298-0.118 0.374-0.225 0.078-0.11 0.101-0.23 0.068-0.361-0.026-0.105-0.072-0.184-0.136-0.238-0.062-0.054-0.139-0.092-0.232-0.114-0.090-0.023-0.192-0.038-0.306-0.046s-0.234-0.017-0.36-0.028c-0.249-0.019-0.447-0.076-0.594-0.169-0.144-0.094-0.241-0.24-0.291-0.439-0.045-0.167-0.043-0.323 0.006-0.468 0.051-0.146 0.141-0.271 0.269-0.375 0.13-0.108 0.293-0.186 0.489-0.235 0.193-0.048 0.371-0.055 0.534-0.020 0.165 0.034 0.305 0.105 0.42 0.212 0.114 0.104 0.193 0.24 0.237 0.407l-0.477 0.119c-0.019-0.077-0.057-0.144-0.114-0.202-0.057-0.061-0.13-0.105-0.218-0.131s-0.187-0.026-0.298 0.002c-0.143 0.033-0.252 0.098-0.327 0.195-0.072 0.097-0.092 0.21-0.060 0.341 0.029 0.117 0.085 0.197 0.169 0.243s0.191 0.075 0.321 0.088c0.129 0.010 0.277 0.023 0.444 0.039 0.16 0.011 0.306 0.037 0.44 0.076s0.248 0.106 0.344 0.199c0.099 0.093 0.169 0.225 0.212 0.395 0.038 0.151 0.034 0.301-0.010 0.451-0.045 0.147-0.134 0.281-0.267 0.401-0.134 0.118-0.313 0.205-0.537 0.261zM13.779 15.458l-0.744-2.983 0.452-0.113 0.319 1.278 1.445-0.36-0.319-1.278 0.452-0.113 0.744 2.983-0.452 0.113-0.333-1.334-1.445 0.36 0.333 1.334-0.452 0.113zM17.953 14.472c-0.296 0.074-0.57 0.073-0.825-0.003s-0.472-0.213-0.655-0.412c-0.183-0.202-0.313-0.455-0.388-0.759s-0.080-0.587-0.012-0.848c0.067-0.264 0.195-0.489 0.384-0.675s0.431-0.316 0.727-0.389c0.296-0.074 0.57-0.073 0.825 0.003s0.471 0.214 0.652 0.417c0.182 0.199 0.312 0.45 0.387 0.754s0.080 0.588 0.013 0.852c-0.065 0.261-0.192 0.484-0.381 0.67s-0.431 0.316-0.727 0.389zM17.852 14.067c0.205-0.051 0.371-0.141 0.499-0.269 0.131-0.129 0.218-0.29 0.26-0.481s0.035-0.405-0.024-0.641-0.152-0.428-0.28-0.578c-0.128-0.149-0.28-0.25-0.456-0.303-0.173-0.053-0.362-0.055-0.567-0.004s-0.372 0.141-0.503 0.27c-0.131 0.129-0.217 0.29-0.26 0.481-0.040 0.191-0.030 0.404 0.028 0.64s0.151 0.429 0.276 0.579c0.128 0.149 0.28 0.25 0.456 0.303s0.366 0.053 0.571 0.002zM19.751 13.969l-0.744-2.983 1.044-0.26c0.233-0.058 0.436-0.066 0.609-0.025 0.173 0.038 0.313 0.117 0.421 0.235 0.11 0.114 0.186 0.257 0.229 0.427 0.040 0.162 0.041 0.32 0.001 0.475-0.038 0.151-0.123 0.286-0.257 0.404s-0.32 0.206-0.558 0.266l-0.592 0.148 0.3 1.202-0.452 0.113zM19.811 12.284l0.571-0.142c0.213-0.053 0.354-0.136 0.422-0.25 0.070-0.117 0.086-0.255 0.046-0.414-0.041-0.165-0.12-0.281-0.236-0.348-0.114-0.071-0.278-0.080-0.491-0.027l-0.571 0.142 0.259 1.040zM12.864 20.213l-0.744-2.983 0.452-0.113 2.056 1.873-0.56-2.246 0.452-0.113 0.744 2.983-0.452 0.113-2.056-1.873 0.56 2.246-0.452 0.113zM17.088 19.214c-0.296 0.074-0.57 0.073-0.824-0.003s-0.472-0.213-0.655-0.412c-0.183-0.202-0.313-0.455-0.388-0.759s-0.080-0.587-0.012-0.848c0.067-0.264 0.195-0.489 0.384-0.675s0.431-0.316 0.727-0.389c0.295-0.074 0.57-0.073 0.824 0.003s0.471 0.214 0.652 0.417c0.182 0.199 0.312 0.45 0.387 0.754s0.080 0.588 0.013 0.852c-0.065 0.261-0.192 0.484-0.381 0.67s-0.431 0.316-0.727 0.39zM16.987 18.809c0.205-0.051 0.371-0.141 0.499-0.269 0.131-0.129 0.217-0.29 0.26-0.481s0.035-0.405-0.024-0.641c-0.059-0.236-0.152-0.428-0.28-0.578s-0.28-0.25-0.456-0.303c-0.173-0.053-0.362-0.054-0.567-0.003s-0.372 0.141-0.503 0.27c-0.131 0.129-0.218 0.29-0.26 0.481-0.040 0.191-0.030 0.404 0.028 0.64s0.151 0.429 0.276 0.579c0.128 0.149 0.28 0.25 0.456 0.303s0.366 0.053 0.571 0.003zM19.377 18.593l-1.55-2.787 0.486-0.121 1.209 2.324 0.066-2.642 0.499-0.124 1.277 2.307-0.024-2.619 0.486-0.121-0.074 3.187-0.528 0.132-1.235-2.177-0.090 2.508-0.519 0.134z">
            </path>
        </symbol>
        <symbol id="icon-cart" viewBox="0 0 36 32">
            <path fill-rule="evenodd" clip-rule="evenodd" fill="#ae1332" style="fill: var(--color1, #ae1332)"
                d="M13.532 5.483c-0.804 1.115-1.088 2.507-1.088 3.406v1.778h10.667v-1.778c0-0.901-0.284-2.292-1.086-3.406-0.738-1.024-1.982-1.927-4.247-1.927s-3.509 0.903-4.245 1.927zM26.667 10.667v-1.778c0-1.47-0.427-3.634-1.756-5.483-1.397-1.94-3.708-3.406-7.132-3.406s-5.735 1.467-7.132 3.406c-1.33 1.849-1.756 4.012-1.756 5.483v1.778h-7.111c-0.472 0-0.924 0.187-1.257 0.521s-0.521 0.786-0.521 1.257c0 0.472 0.187 0.924 0.521 1.257s0.786 0.521 1.257 0.521h0.169l1.618 16.178c0.044 0.439 0.249 0.845 0.576 1.141s0.752 0.459 1.193 0.459h24.889c0.441 0 0.866-0.164 1.193-0.459s0.532-0.702 0.576-1.141l1.618-16.178h0.169c0.471 0 0.924-0.187 1.257-0.521s0.521-0.786 0.521-1.257c0-0.472-0.187-0.924-0.521-1.257s-0.786-0.521-1.257-0.521h-7.111zM12.444 19.556c0-0.471-0.187-0.924-0.521-1.257s-0.786-0.521-1.257-0.521c-0.472 0-0.924 0.187-1.257 0.521s-0.521 0.786-0.521 1.257v3.556c0 0.471 0.187 0.924 0.521 1.257s0.786 0.521 1.257 0.521c0.472 0 0.924-0.187 1.257-0.521s0.521-0.786 0.521-1.257v-3.556zM19.556 19.556c0-0.471-0.187-0.924-0.521-1.257s-0.786-0.521-1.257-0.521c-0.471 0-0.924 0.187-1.257 0.521s-0.521 0.786-0.521 1.257v3.556c0 0.471 0.187 0.924 0.521 1.257s0.786 0.521 1.257 0.521c0.471 0 0.924-0.187 1.257-0.521s0.521-0.786 0.521-1.257v-3.556zM26.667 19.556c0-0.471-0.187-0.924-0.521-1.257s-0.786-0.521-1.257-0.521c-0.471 0-0.924 0.187-1.257 0.521s-0.521 0.786-0.521 1.257v3.556c0 0.471 0.187 0.924 0.521 1.257s0.786 0.521 1.257 0.521c0.471 0 0.924-0.187 1.257-0.521s0.521-0.786 0.521-1.257v-3.556z">
            </path>
        </symbol>
        <symbol id="icon-check-box" viewBox="0 0 32 32">
            <path fill="#fff" style="fill: var(--color2, #fff)"
                d="M26.151 1.405c0.992-1.463 2.982-1.845 4.444-0.853s1.845 2.982 0.853 4.444l-17.356 25.599c-1.269 1.872-4.028 1.872-5.297 0l-8.244-12.16c-0.992-1.463-0.61-3.453 0.853-4.444s3.453-0.61 4.444 0.853l5.595 8.253 14.707-21.693z">
            </path>
        </symbol>
        <symbol id="icon-close" viewBox="0 0 32 32">
            <path fill="none" stroke="#ae1332" style="stroke: var(--color1, #ae1332)" stroke-linejoin="round"
                stroke-linecap="round" stroke-miterlimit="4" stroke-width="3.4286" d="M24 8l-16 16"></path>
            <path fill="none" stroke="#ae1332" style="stroke: var(--color1, #ae1332)" stroke-linejoin="round"
                stroke-linecap="round" stroke-miterlimit="4" stroke-width="3.4286" d="M8 8l16 16"></path>
        </symbol>
        <symbol id="icon-facebook" viewBox="0 0 32 32">
            <path fill="#ae1332" style="fill: var(--color1, #ae1332)" opacity="0.8"
                d="M19.52 4.64c0.24 0 0.48 0 0.96 0v3.6c-0.24 0-0.72 0-1.2 0s-0.96 0-1.2 0.24c-0.24 0.24-0.24 0.48-0.24 1.040 0 0.48 0 0.8 0 1.28h2.64v3.040h-2.64v13.2h-4.080v-13.28h-2.16v-3.040h2.16v-1.040c0-1.76 0.24-3.040 0.72-3.6 0.72-1.040 2.16-1.52 4.32-1.52 0.24 0.080 0.48 0.080 0.72 0.080z">
            </path>
        </symbol>
        <symbol id="icon-instagram" viewBox="0 0 32 32">
            <path fill="#ae1332" style="fill: var(--color1, #ae1332)" opacity="0.8"
                d="M28.717 10.756c-0.016-1.074-0.215-2.14-0.596-3.145-0.667-1.716-2.024-3.073-3.743-3.737-0.994-0.373-2.044-0.573-3.108-0.596-1.368-0.061-1.801-0.078-5.273-0.078s-3.917 0-5.274 0.078c-1.062 0.023-2.112 0.223-3.106 0.596-1.719 0.664-3.078 2.021-3.743 3.737-0.374 0.992-0.576 2.041-0.596 3.101-0.061 1.367-0.080 1.8-0.080 5.265s0 3.909 0.080 5.265c0.021 1.062 0.222 2.109 0.596 3.104 0.667 1.714 2.024 3.071 3.744 3.735 0.989 0.386 2.040 0.605 3.106 0.639 1.369 0.061 1.803 0.080 5.274 0.080s3.916 0 5.274-0.080c1.062-0.021 2.113-0.221 3.108-0.595 1.719-0.666 3.076-2.022 3.743-3.737 0.374-0.994 0.574-2.041 0.596-3.104 0.061-1.365 0.080-1.798 0.080-5.265-0.003-3.466-0.003-3.906-0.082-5.264zM15.99 22.531c-3.631 0-6.572-2.936-6.572-6.561s2.941-6.561 6.572-6.561c3.628 0 6.572 2.936 6.572 6.561s-2.944 6.561-6.572 6.561zM22.823 10.696c-0.849 0-1.532-0.684-1.532-1.53s0.684-1.53 1.532-1.53c0.846 0 1.531 0.684 1.531 1.53s-0.685 1.53-1.531 1.53z">
            </path>
            <path fill="#ae1332" style="fill: var(--color1, #ae1332)" opacity="0.8"
                d="M15.992 19.976c2.211 0 4.004-1.793 4.004-4.004s-1.793-4.004-4.004-4.004c-2.211 0-4.004 1.793-4.004 4.004s1.793 4.004 4.004 4.004z">
            </path>
        </symbol>
        <symbol id="icon-logo" viewBox="0 0 32 32">
            <path fill="#ae1332" style="fill: var(--color1, #ae1332)"
                d="M29.082 0.314h-4.009c-1.237 0-2.24 0.983-2.24 2.195v3.929c0 1.212 1.003 2.195 2.24 2.195h4.009c1.237 0 2.24-0.983 2.24-2.195v-3.929c0-1.212-1.003-2.195-2.24-2.195z">
            </path>
            <path fill="#ae1332" style="fill: var(--color1, #ae1332)"
                d="M6.73 23.040h-4.318c-1.332 0-2.412 0.983-2.412 2.195v3.929c0 1.213 1.080 2.195 2.412 2.195h4.318c1.332 0 2.412-0.983 2.412-2.195v-3.929c0-1.212-1.080-2.195-2.412-2.195z">
            </path>
            <path fill="#ae1332" style="fill: var(--color1, #ae1332)"
                d="M6.25 11.582h-4.009c-1.237 0-2.24 0.983-2.24 2.195v3.929c0 1.212 1.003 2.195 2.24 2.195h4.009c1.237 0 2.24-0.983 2.24-2.195v-3.929c0-1.212-1.003-2.195-2.24-2.195z">
            </path>
            <path fill="#ae1332" style="fill: var(--color1, #ae1332)"
                d="M17.766 22.978h-4.009c-1.237 0-2.24 0.983-2.24 2.195l-0 3.929c0 1.212 1.003 2.195 2.241 2.195h4.009c1.237 0 2.24-0.983 2.24-2.195v-3.929c0-1.213-1.003-2.195-2.24-2.195z">
            </path>
            <path fill="#ae1332" style="fill: var(--color1, #ae1332)"
                d="M6.25 0.086h-4.009c-1.237 0-2.24 0.983-2.24 2.195v3.929c0 1.212 1.003 2.195 2.24 2.195h4.009c1.237 0 2.24-0.983 2.24-2.195v-3.929c0-1.212-1.003-2.195-2.24-2.195z">
            </path>
            <path fill="#ae1332" style="fill: var(--color1, #ae1332)"
                d="M18.076 11.697h-4.009c-1.237 0-2.24 0.983-2.24 2.195v3.929c0 1.212 1.003 2.195 2.24 2.195h4.009c1.237 0 2.24-0.983 2.24-2.195v-3.929c0-1.212-1.003-2.195-2.24-2.195z">
            </path>
            <path fill="#ae1332" style="fill: var(--color1, #ae1332)"
                d="M29.333 22.978h-4.010c-1.237 0-2.24 0.983-2.24 2.195v3.929c0 1.212 1.003 2.195 2.24 2.195h4.009c1.237 0 2.24-0.983 2.24-2.195v-3.929c0-1.213-1.003-2.195-2.24-2.195z">
            </path>
            <path fill="#ae1332" style="fill: var(--color1, #ae1332)"
                d="M17.591 0.224h-4.009c-1.237 0-2.24 0.983-2.24 2.195v3.929c0 1.212 1.003 2.195 2.24 2.195h4.009c1.237 0 2.24-0.984 2.24-2.196v-3.929c0-1.212-1.003-2.195-2.24-2.195z">
            </path>
            <path fill="#ae1332" style="fill: var(--color1, #ae1332)"
                d="M29.044 11.926h-4.010c-1.237 0-2.24 0.983-2.24 2.195v3.929c0 1.212 1.003 2.195 2.24 2.195h4.009c1.237 0 2.24-0.983 2.24-2.195v-3.929c0-1.212-1.003-2.195-2.24-2.195z">
            </path>
        </symbol>
        <symbol id="icon-youtube" viewBox="0 0 32 32">
            <path fill="#ae1332" style="fill: var(--color1, #ae1332)" opacity="0.8"
                d="M24.24 6c-1.36-0.080-4.16-0.16-8.4-0.16h-0.56c-4.080 0-6.8 0.080-8.16 0.24-1.84 0.16-3.12 0.64-3.84 1.28-0.64 0.56-1.12 1.6-1.28 2.96-0.080 0.88-0.16 2.72-0.16 5.52v0.4c0 2.64 0.080 4.48 0.24 5.36 0.24 1.28 0.64 2.24 1.44 2.8 0.8 0.64 2.16 1.040 4.080 1.2 1.36 0.080 4.16 0.16 8.4 0.16h0.56c4.080 0 6.8-0.080 8.16-0.24 1.84-0.16 3.12-0.64 3.84-1.28 0.64-0.56 1.12-1.6 1.28-2.96 0.080-0.88 0.16-2.72 0.16-5.52v-0.4c0-2.64-0.080-4.48-0.24-5.36-0.24-1.28-0.64-2.24-1.44-2.8-0.8-0.64-2.16-1.040-4.080-1.2zM21.12 15.84l-8.8 5.28v-10.56l8.8 5.28z">
            </path>
            <!-- Order btn -->
            <symbol id="icon-Order_btn" viewBox="0 0 30 32">
            <path d="M29.867 4.588l-4.425-4.425v22.123l-22.123-22.123-3.319 3.319 22.124 22.123h-22.124l4.425 4.425h25.442v-25.442z"></path>
            </symbol>
        </symbol>
    </defs>
</svg>